PathFileType	4	(X/Y/Z)	C:/Users/beibeiliu/ov580/test_trc/User2\sequence.10_training_dense_right.trc
DataRate	CameraRate	NumFrames	NumMarkers	Units	OrigDataRate	OrigDataStartFrame	OrigNumFrames
120	120	16	19	mm	120	61	484
Frame#	Time	ThumbCMC			ThumbMCP			ThumbIP			ThumbTip			IndexMCP			IndexPIP			IndexTip			MiddleMCP			MiddlePIP			MiddleTip			RingMCP			RingPIP			RingTip			PinkyMCP			PinkyPIP			PinkyTip			BackHand1			BackHand2			BackHand3	
		X0	Y0	Z0	X1	Y1	Z1	X2	Y2	Z2	X3	Y3	Z3	X4	Y4	Z4	X5	Y5	Z5	X6	Y6	Z6	X7	Y7	Z7	X8	Y8	Z8	X9	Y9	Z9	X10	Y10	Z10	X11	Y11	Z11	X12	Y12	Z12	X13	Y13	Z13	X14	Y14	Z14	X15	Y15	Z15	X16	Y16	Z16	X17	Y17	Z17	X18	Y18	Z18	
60	0.5	69.4023	-28.5719	111.777	58.8165	-52.1833	85.7973	55.1506	-72.7042	56.4294	66.7656	-87.6495	34.0561	85.734	-6.28915	30.3304	79.9701	-5.69518	2.25838	79.7687	-4.3903	-24.5665	104.692	-34.884	25.5104	92.4771	-69.9468	17.3131	85.0545	-89.4226	56.5147	121.769	-60.1688	32.7817	108.484	-85.7074	41.255	96.6129	-85.3367	75.9462	138.38	-67.6998	51.385	111.472	-85.6228	64.4809	107.221	-73.8998	91.5862	137.896	-15.3125	81.6563	140.006	-8.75235	117.443	104.908	0.626294	98.0928	
61	0.508333	75.1636	-31.2309	104.858	59.0441	-58.5468	85.6197	59.3166	-82.179	56.4872	76.0996	-95.7844	40.3978	93.5119	-15.9975	30.8845	95.6806	-18.8	-0.214475	93.025	-19.4222	-24.5526	116.763	-47.5343	27.5114	100.296	-83.1653	21.299	88.0685	-96.353	56.041	126.886	-66.6819	36.62	114.169	-93.4279	42.7329	100.39	-93.8052	77.3362	140.601	-76.2228	53.3219	121.032	-95.1069	68.1105	107.237	-74.3664	95.2343	143.409	-22.9769	80.7298	144.118	-12.4274	115.494	107.318	-3.06412	95.7555	
62	0.516667	76.4575	-34.3923	105.156	64.7923	-64.6453	86.7186	65.8413	-91.4919	58.5208	79.4622	-107.428	44.0812	99.8485	-27.4834	29.2637	100.054	-31.8165	2.67196	98.0515	-32.493	-26.9372	119.318	-60.91	24.481	105.219	-93.4252	25.7305	93.7101	-104.939	64.7061	134.424	-75.5854	41.4506	114.607	-103.264	49.814	101.744	-99.3402	85.3744	148.568	-83.4517	59.4325	121.976	-101.116	73.7978	109.426	-80.1029	96.3956	145.296	-26.5873	82.8395	148.126	-14.2228	116.356	111.837	-9.93838	92.273	
63	0.525	76.7829	-38.011	105.768	66.1134	-68.8012	89.0977	65.1844	-96.3433	65.5672	81.745	-115.226	48.2202	99.3357	-33.9252	29.1232	93.0693	-36.5163	0.495541	99.1917	-42.5974	-26.1143	118.894	-65.0236	29.5571	107.427	-98.074	29.5355	95.4247	-109.946	71.3783	134.834	-79.6124	44.3645	120.12	-107.752	53.921	105.484	-105.127	85.757	148.703	-86.3888	61.8712	125.006	-103.891	73.8214	110.945	-88.1333	100.068	146.314	-28.7767	79.3147	146.78	-15.3447	116.156	109.624	-12.0706	92.2743	
64	0.533333	77.7964	-35.1319	113.648	63.3119	-68.0087	90.1186	62.1183	-94.8364	70.913	80.22	-111.766	51.5729	92.1115	-29.1283	32.3205	89.1694	-34.8084	0.731657	93.2136	-40.1498	-24.4659	111.823	-61.2974	29.4068	105.127	-97.2277	32.0252	91.2417	-108.008	67.7055	130.625	-77.4624	43.6361	116.296	-108.351	56.5157	102.348	-104.154	84.8679	144.46	-83.7884	59.9337	122.519	-103.81	75.932	111.661	-89.1554	102.185	145.665	-28.4806	79.9776	147.34	-13.8365	115.348	111.063	-10.3423	96.2451	
65	0.541667	75.8331	-30.7277	113.002	64.9018	-60.2511	92.5115	60.7862	-85.3365	68.3193	75.5632	-102.518	51.1778	91.5231	-20.8579	34.0715	91.3342	-26.3983	3.27926	89.8852	-29.1384	-20.7066	113.347	-55.5142	26.9892	101.785	-87.7097	28.5126	88.6578	-100.778	62.3166	124.683	-70.9337	40.5872	110.858	-97.4946	50.4686	97.5961	-95.5971	84.2863	140.624	-78.6039	56.8926	119.767	-98.2542	75.465	109.777	-82.1593	97.5522	144.346	-22.3038	83.6506	144.711	-11.2136	118.411	112.608	-4.1262	95.412	
66	0.55	75.0755	-23.7632	111.663	63.3383	-51.1997	90.4526	59.877	-74.6134	59.9329	75.2219	-89.3088	43.9533	93.1512	-10.1417	30.7295	87.6436	-9.92665	6.30123	87.302	-12.1085	-25.019	112.233	-39.9376	27.4116	99.9642	-75.4664	23.0221	88.5312	-91.2209	60.192	125.683	-62.6421	36.1745	109.872	-89.4507	47.4559	97.3726	-87.3892	78.0638	140.811	-69.0512	53.1322	120.022	-88.8598	66.1824	111.212	-74.8376	97.0774	146.6	-15.9922	80.3754	146.757	-8.43415	116.635	112.26	1.55396	100.001	
67	0.558333	75.5353	-17.1114	109.729	65.0355	-43.0089	84.5887	66.0326	-63.3733	54.4243	75.0225	-78.9473	36.2075	96.7058	1.37036	30.4111	90.9076	2.3045	3.13614	93.1984	0.899423	-25.1552	111.522	-30.1167	22.2439	103.431	-63.0208	17.4756	91.6424	-82.2724	50.1096	131.13	-48.1437	35.1367	113.699	-76.5226	38.4802	100.303	-78.8601	71.9434	145.147	-60.7719	50.921	117.175	-79.6329	63.5683	111.307	-67.9635	90.9112	146.611	-8.42574	83.8913	150.384	-2.822	119.876	111.825	9.39583	97.7213	
68	0.566667	79.6388	-13.6356	106.575	69.8301	-37.0374	81.9565	65.1559	-58.4305	49.0652	79.2043	-71.9385	29.205	103.304	7.6094	30.965	102.479	9.29414	3.43583	99.2003	10.4911	-25.0913	122.528	-23.6657	19.178	111.051	-55.1217	13.7021	96.4397	-75.786	45.1232	137.648	-43.309	32.0238	118.591	-68.9314	34.5691	102.038	-71.5718	69.402	148.136	-54.1885	47.9239	125.435	-72.6586	56.3392	113.148	-59.4155	86.8649	148.928	-2.69314	83.9293	151.638	0.633349	116.454	119.816	12.1631	96.8166	
69	0.575	89.2281	-11.879	99.8568	76.5648	-34.9389	77.2483	75.7852	-55.7605	43.6013	87.4597	-70.4364	28.1257	109.833	11.9004	24.7387	110.576	12.7149	-0.48279	111.957	13.1413	-27.2976	130.114	-19.1441	19.1688	117.623	-52.1077	10.1192	106.355	-74.2981	42.9953	145.7	-39.5271	31.9479	127.215	-65.7363	32.0497	113.133	-72.1195	66.9623	153.602	-51.7049	46.0686	135.049	-74.478	56.3991	121.4	-62.3744	83.1582	158.05	-2.02075	81.1843	152.213	4.03647	119.18	121.087	14.0281	98.9429	
70	0.583333	94.8342	-12.8779	98.6956	85.0074	-38.1763	72.1364	82.127	-60.2441	41.9898	98.7598	-75.0544	24.7328	124.417	6.59881	20.2376	123.387	7.71865	-4.51452	126.221	8.33496	-34.5785	144.129	-24.0885	19.5403	128.892	-54.8546	8.81661	116.342	-77.3819	40.3054	153.134	-42.2683	32.2289	137.254	-70.1499	31.9609	117.408	-73.5891	63.3647	163.553	-54.4431	46.7138	140.224	-76.072	58.2756	125.713	-64.2396	79.8246	164.832	-4.88441	79.9837	159.479	2.64927	113.81	130.413	15.0378	92.9089	
71	0.591667	100.992	-15.2158	93.6895	87.9275	-41.8538	70.7999	95.7918	-66.6436	43.2998	111.014	-84.1651	25.7826	133.01	-0.958347	19.5478	138.786	-4.13783	-8.17253	139.967	-3.79617	-32.3787	149.695	-33.6174	16.9111	139.169	-65.4992	11.3773	119.052	-82.3695	45.7364	162.46	-51.8498	33.4608	149.738	-79.3831	37.9372	124.882	-80.0012	68.6978	174.406	-59.8395	53.2855	149.939	-80.5045	57.7588	133.903	-70.4355	81.3003	172.858	-6.44419	82.3133	164.036	2.15805	117.484	135.291	9.8183	92.9181	
72	0.6	105.961	-17.6784	94.6655	95.9896	-48.2777	68.9722	101.641	-74.7495	45.8968	118.369	-93.1091	33.5838	142.208	-12.1045	20.5969	147.223	-16.1993	-10.5714	153.34	-19.8985	-35.7226	158.142	-45.1664	20.074	147.263	-80.1787	18.9767	125.928	-90.0287	49.0288	169.298	-59.485	36.5978	150.297	-87.7241	41.2151	132.424	-88.6404	72.6434	179.304	-66.2781	56.2611	152.219	-87.6725	64.838	136.137	-75.5054	89.8978	177.991	-12.5011	80.894	172.735	-2.0342	110.539	140.599	5.77077	83.8912	
73	0.608333	109.963	-20.9027	91.2879	93.008	-51.7668	73.6367	100.23	-80.9271	54.0581	115.429	-99.9342	42.0304	143.128	-20.786	18.0547	143.555	-25.9291	-9.39533	151.236	-31.2369	-33.0026	157.779	-54.6338	21.8549	146.02	-87.0575	22.9295	124.839	-95.1868	56.3184	168.679	-68.0937	39.1297	152.079	-98.5516	47.665	131.495	-93.8066	77.0817	179.96	-76.4184	60.3237	154.547	-96.9506	72.1566	135.781	-79.2651	94.9484	178.612	-20.8025	77.5754	174.581	-5.3896	111.193	144.653	1.45069	85.4096	
74	0.616667	110.371	-20.915	96.1199	94.2552	-52.1354	79.0529	92.5931	-81.2312	62.5751	107.761	-102.792	51.3035	138.633	-27.3129	19.573	139.624	-34.2603	-9.02901	146.285	-43.9387	-31.2593	150.473	-62.3985	24.4983	135.757	-95.1725	30.4166	118.514	-98.2036	64.0812	162.684	-75.7533	41.8231	140.748	-103.15	54.9858	124.628	-96.6799	80.9439	173.021	-83.8234	62.1466	144.14	-100.037	76.9936	131.231	-78.3926	97.0676	180.951	-28.7913	76.5191	177.683	-9.86672	110.363	148.279	-2.40056	81.2894	
75	0.625	108.312	-16.373	99.2311	85.0631	-44.0937	88.2525	76.9836	-74.4563	71.9893	87.8778	-101.285	56.0843	130.125	-30.1408	20.2	128.168	-38.8359	-5.38439	127.767	-47.9127	-30.4051	136.9	-61.2621	27.4515	114.346	-93.7918	33.1488	100.589	-91.4051	72.4074	145.362	-84.5627	43.8551	124.318	-101.529	54.166	110.039	-92.2765	87.0449	159.215	-88.6046	63.9117	132.021	-102.377	78.5482	120.808	-79.101	102.564	176.269	-35.4172	76.1452	178.127	-16.7287	108.468	147.691	-2.25253	81.4039	
